<?xml version="1.0" ?><svg height="500mm" id="svg3346" version="1.1" viewBox="0 0 1771.6537 1771.6535" width="500mm" xmlns="http://www.w3.org/2000/svg" xmlns:cc="http://creativecommons.org/ns#" xmlns:dc="http://purl.org/dc/elements/1.1/" xmlns:inkscape="http://www.inkscape.org/namespaces/inkscape" xmlns:rdf="http://www.w3.org/1999/02/22-rdf-syntax-ns#" xmlns:sodipodi="http://sodipodi.sourceforge.net/DTD/sodipodi-0.dtd" xmlns:svg="http://www.w3.org/2000/svg"><defs id="defs3348"/><g id="layer1" transform="translate(-52.550652,948.32912)"><rect height="391.12851" id="rect4207" ry="146.4817" style="fill:#fbecd6;fill-opacity:1" width="791.56952" x="590.65948" y="-584.28424"/><path d="M 758.88008,789.84627 C 720.111,782.94286 653.14029,766.49272 610.05624,753.29037 530.37983,728.87498 362.84002,652.56341 324.69136,623.31147 c -20.7084,-15.87893 -20.8004,-16.86474 -6.61752,-70.8878 49.79449,-189.6686 188.34528,-355.39522 371.51121,-444.38056 110.89509,-53.874902 190.27599,-71.918024 317.35005,-72.133046 243.6054,-0.412195 457.9695,113.794076 595.2132,317.110256 37.178,55.07645 86.7515,168.57256 87.2887,199.84288 0.2231,13.00886 -18.0484,30.5144 -60.4878,57.95112 -137.7595,89.06044 -299.2578,152.47113 -457.3786,179.5849 -98.6602,16.91784 -316.21253,16.62633 -412.69052,-0.55295 z" id="path4180" style="fill:#1a1a1a;fill-opacity:1"/><rect height="118.30683" id="rect4182" ry="59.153416" style="fill:#1a1a1a;fill-opacity:1" transform="matrix(0.76356839,0.64572696,-0.65192184,0.75828617,0,0)" width="1231.5475" x="87.052803" y="-237.13866"/><path d="M 998.81085,-919.42301 A 539.63093,521.33839 0 0 0 459.17734,-398.08373 539.63093,521.33839 0 0 0 998.81085,123.25553 539.63093,521.33839 0 0 0 1538.4384,-398.08373 539.63093,521.33839 0 0 0 998.81085,-919.42301 Z m -259.44719,334.41919 498.60584,0 c 81.1508,0 146.4799,65.3353 146.4799,146.48619 l 0,98.1618 c 0,81.15085 -65.3291,146.47992 -146.4799,146.47992 l -498.60584,0 c -81.15087,0 -146.48621,-65.32907 -146.48621,-146.47992 l 0,-98.1618 c 0,-81.15089 65.33534,-146.48619 146.48621,-146.48619 z" id="ellipse16434" style="fill:#1a1a1a;fill-opacity:1;fill-rule:evenodd;stroke:none;stroke-width:1px;stroke-linecap:butt;stroke-linejoin:miter;stroke-opacity:1"/><ellipse cx="828.13019" cy="-384.06381" id="path4209" rx="60.531792" ry="74.500656" style="fill:#1a1a1a;fill-opacity:1"/><ellipse cx="828.13019" cy="-384.06381" id="ellipse4213" rx="60.531792" ry="74.500656" style="fill:#1a1a1a;fill-opacity:1"/><ellipse cx="1126.1327" cy="-384.06381" id="ellipse4247" rx="60.531792" ry="74.500656" style="fill:#1a1a1a;fill-opacity:1"/></g></svg>